<svg width="17" height="12" viewBox="0 0 17 12" fill="none" xmlns="http://www.w3.org/2000/svg">
<path d="M0.574625 11.16C0.478625 11.16 0.398625 11.128 0.334625 11.064C0.270625 11 0.238625 10.92 0.238625 10.824V8.232C0.238625 8.01867 0.297292 7.864 0.414625 7.768C0.542625 7.672 0.654625 7.59733 0.750625 7.544L3.55063 5.784L0.750625 4.04C0.654625 3.98667 0.542625 3.90667 0.414625 3.8C0.297292 3.69333 0.238625 3.53867 0.238625 3.336V0.743999C0.238625 0.647999 0.270625 0.568 0.334625 0.504C0.398625 0.439999 0.478625 0.407999 0.574625 0.407999C0.595958 0.407999 0.617292 0.413333 0.638625 0.424C0.670625 0.424 0.707958 0.434666 0.750625 0.455999L7.15063 4.776C7.29996 4.872 7.41196 4.968 7.48663 5.064C7.57196 5.14933 7.61462 5.27733 7.61462 5.448V6.12C7.61462 6.29067 7.57196 6.424 7.48663 6.52C7.41196 6.60533 7.29996 6.696 7.15063 6.792L0.750625 11.112C0.707958 11.1333 0.670625 11.144 0.638625 11.144C0.617292 11.1547 0.595958 11.16 0.574625 11.16ZM9.184 11.16C9.088 11.16 9.008 11.128 8.944 11.064C8.88 11 8.848 10.92 8.848 10.824V8.232C8.848 8.01867 8.90667 7.864 9.024 7.768C9.152 7.672 9.264 7.59733 9.36 7.544L12.16 5.784L9.36 4.04C9.264 3.98667 9.152 3.90667 9.024 3.8C8.90667 3.69333 8.848 3.53867 8.848 3.336V0.743999C8.848 0.647999 8.88 0.568 8.944 0.504C9.008 0.439999 9.088 0.407999 9.184 0.407999C9.20533 0.407999 9.22667 0.413333 9.248 0.424C9.28 0.424 9.31733 0.434666 9.36 0.455999L15.76 4.776C15.9093 4.872 16.0213 4.968 16.096 5.064C16.1813 5.14933 16.224 5.27733 16.224 5.448V6.12C16.224 6.29067 16.1813 6.424 16.096 6.52C16.0213 6.60533 15.9093 6.696 15.76 6.792L9.36 11.112C9.31733 11.1333 9.28 11.144 9.248 11.144C9.22667 11.1547 9.20533 11.16 9.184 11.16Z" fill="#559F13"/>
</svg>
