<svg width="42" height="42" viewBox="0 0 42 42" fill="none" xmlns="http://www.w3.org/2000/svg">
<path d="M29.75 29.75H5.25C3.325 29.75 1.75 28.175 1.75 26.25V8.75C1.75 6.825 3.325 5.25 5.25 5.25H29.75C31.675 5.25 33.25 6.825 33.25 8.75V26.25C33.25 28.175 31.675 29.75 29.75 29.75Z" stroke="#FF9D03" stroke-width="2" stroke-miterlimit="10" stroke-linecap="round" stroke-linejoin="round"/>
<path d="M33.25 12.25H36.75C38.675 12.25 40.25 13.825 40.25 15.75V33.25C40.25 35.175 38.675 36.75 36.75 36.75H12.25C10.325 36.75 8.75 35.175 8.75 33.25V29.75" stroke="#FF9D03" stroke-width="2" stroke-miterlimit="10" stroke-linecap="round" stroke-linejoin="round"/>
<path d="M1.75 12.25H33.25" stroke="#FF9D03" stroke-width="2" stroke-miterlimit="10" stroke-linecap="round" stroke-linejoin="round"/>
<path d="M8.75 22.75H14" stroke="#FF9D03" stroke-width="2" stroke-miterlimit="10" stroke-linecap="round" stroke-linejoin="round"/>
</svg>
