<svg width="18" height="17" viewBox="0 0 18 17" fill="none" xmlns="http://www.w3.org/2000/svg">
<path d="M11.4475 2.70892L11.0091 5.17371C10.9361 5.36331 10.9361 5.55293 11.0091 5.74254C11.0822 5.93214 11.1552 6.12178 11.3014 6.24818L12.6895 7.82822C11.7397 9.53466 10.1324 10.8619 8.15981 11.7467L6.40639 10.6091C6.26027 10.4827 6.04109 10.3563 5.82191 10.2931C5.60273 10.2299 5.3105 10.2299 5.09132 10.2931L2.24201 10.6723C1.87671 10.7355 1.58448 10.8619 1.3653 11.1147C1.14612 11.3675 1 11.6203 1 11.9363V14.3379C1 14.6539 1.14612 14.9068 1.3653 15.0964C1.58448 15.286 1.94977 15.4124 2.24201 15.4124C6.18721 15.4124 9.91324 14.0851 12.6895 11.6835C15.4658 9.28183 17 6.05853 17 2.64565C17 2.32964 16.8539 2.07687 16.6347 1.88727C16.4155 1.69766 16.0502 1.57126 15.758 1.57126H12.9817C12.6164 1.57126 12.2511 1.69766 12.032 1.88727C11.7397 2.14007 11.5205 2.39291 11.4475 2.70892Z" stroke="#FFC329" stroke-width="2" stroke-miterlimit="10" stroke-linecap="round" stroke-linejoin="round"/>
</svg>
